<?xml version="1.0" standalone="no"?>
<!DOCTYPE svg PUBLIC "-//W3C//DTD SVG 1.1//EN" "https://www.w3.org/Graphics/SVG/1.1/DTD/svg11.dtd">

<svg width="800" height="600" version="1.1" xmlns="http://www.w3.org/2000/svg">
	<ellipse stroke="black" stroke-width="1" fill="none" cx="160.5" cy="149.5" rx="30" ry="30"/>
	<text x="150.5" y="155.5" font-family="Times New Roman" font-size="20">q&#8320;</text>
	<ellipse stroke="black" stroke-width="1" fill="none" cx="237.5" cy="77.5" rx="30" ry="30"/>
	<text x="227.5" y="83.5" font-family="Times New Roman" font-size="20">q&#8321;</text>
	<ellipse stroke="black" stroke-width="1" fill="none" cx="340.5" cy="77.5" rx="30" ry="30"/>
	<text x="330.5" y="83.5" font-family="Times New Roman" font-size="20">q&#8322;</text>
	<ellipse stroke="black" stroke-width="1" fill="none" cx="448.5" cy="77.5" rx="30" ry="30"/>
	<text x="438.5" y="83.5" font-family="Times New Roman" font-size="20">q&#8323;</text>
	<ellipse stroke="black" stroke-width="1" fill="none" cx="553.5" cy="77.5" rx="30" ry="30"/>
	<text x="543.5" y="83.5" font-family="Times New Roman" font-size="20">q&#8324;</text>
	<ellipse stroke="black" stroke-width="1" fill="none" cx="553.5" cy="77.5" rx="24" ry="24"/>
	<ellipse stroke="black" stroke-width="1" fill="none" cx="237.5" cy="215.5" rx="30" ry="30"/>
	<text x="227.5" y="221.5" font-family="Times New Roman" font-size="20">q&#8325;</text>
	<ellipse stroke="black" stroke-width="1" fill="none" cx="340.5" cy="215.5" rx="30" ry="30"/>
	<text x="330.5" y="221.5" font-family="Times New Roman" font-size="20">q&#8326;</text>
	<ellipse stroke="black" stroke-width="1" fill="none" cx="448.5" cy="215.5" rx="30" ry="30"/>
	<text x="438.5" y="221.5" font-family="Times New Roman" font-size="20">q&#8327;</text>
	<ellipse stroke="black" stroke-width="1" fill="none" cx="553.5" cy="215.5" rx="30" ry="30"/>
	<text x="543.5" y="221.5" font-family="Times New Roman" font-size="20">q&#8328;</text>
	<ellipse stroke="black" stroke-width="1" fill="none" cx="553.5" cy="215.5" rx="24" ry="24"/>
	<polygon stroke="black" stroke-width="1" points="76.5,149.5 130.5,149.5"/>
	<text x="26.5" y="155.5" font-family="Times New Roman" font-size="20">start</text>
	<polygon fill="black" stroke-width="1" points="130.5,149.5 122.5,144.5 122.5,154.5"/>
	<path stroke="black" stroke-width="1" fill="none" d="M 177.633,124.914 A 182.89,182.89 0 0 1 211.821,92.946"/>
	<polygon fill="black" stroke-width="1" points="211.821,92.946 202.407,93.558 208.246,101.676"/>
	<text x="175.5" y="98.5" font-family="Times New Roman" font-size="20">d</text>
	<path stroke="black" stroke-width="1" fill="none" d="M 313.46,90.175 A 90.722,90.722 0 0 1 264.54,90.175"/>
	<polygon fill="black" stroke-width="1" points="313.46,90.175 304.408,87.517 307.104,97.147"/>
	<text x="283.5" y="114.5" font-family="Times New Roman" font-size="20">e</text>
	<polygon stroke="black" stroke-width="1" points="370.5,77.5 418.5,77.5"/>
	<polygon fill="black" stroke-width="1" points="418.5,77.5 410.5,72.5 410.5,82.5"/>
	<text x="389.5" y="98.5" font-family="Times New Roman" font-size="20">e</text>
	<polygon stroke="black" stroke-width="1" points="478.5,77.5 523.5,77.5"/>
	<polygon fill="black" stroke-width="1" points="523.5,77.5 515.5,72.5 515.5,82.5"/>
	<text x="494.5" y="98.5" font-family="Times New Roman" font-size="20">p</text>
	<path stroke="black" stroke-width="1" fill="none" d="M 208.368,209.092 A 80.887,80.887 0 0 1 171.288,177.309"/>
	<polygon fill="black" stroke-width="1" points="208.368,209.092 202.962,201.361 199.05,210.564"/>
	<text x="172.5" y="216.5" font-family="Times New Roman" font-size="20">s</text>
	<path stroke="black" stroke-width="1" fill="none" d="M 311.464,222.846 A 151.521,151.521 0 0 1 266.536,222.846"/>
	<polygon fill="black" stroke-width="1" points="311.464,222.846 302.811,219.087 304.294,228.977"/>
	<text x="283.5" y="245.5" font-family="Times New Roman" font-size="20">e</text>
	<polygon stroke="black" stroke-width="1" points="370.5,215.5 418.5,215.5"/>
	<polygon fill="black" stroke-width="1" points="418.5,215.5 410.5,210.5 410.5,220.5"/>
	<text x="389.5" y="236.5" font-family="Times New Roman" font-size="20">e</text>
	<polygon stroke="black" stroke-width="1" points="478.5,215.5 523.5,215.5"/>
	<polygon fill="black" stroke-width="1" points="523.5,215.5 515.5,210.5 515.5,220.5"/>
	<text x="494.5" y="236.5" font-family="Times New Roman" font-size="20">k</text>
	<path stroke="black" stroke-width="1" fill="none" d="M 147.275,122.703 A 22.5,22.5 0 1 1 173.725,122.703"/>
	<text x="136.5" y="73.5" font-family="Times New Roman" font-size="20">&#931;-d-s</text>
	<polygon fill="black" stroke-width="1" points="173.725,122.703 182.473,119.17 174.382,113.292"/>
	<path stroke="black" stroke-width="1" fill="none" d="M 580.297,64.275 A 22.5,22.5 0 1 1 580.297,90.725"/>
	<text x="626.5" y="83.5" font-family="Times New Roman" font-size="20">&#931;</text>
	<polygon fill="black" stroke-width="1" points="580.297,90.725 583.83,99.473 589.708,91.382"/>
	<path stroke="black" stroke-width="1" fill="none" d="M 580.297,202.275 A 22.5,22.5 0 1 1 580.297,228.725"/>
	<text x="626.5" y="221.5" font-family="Times New Roman" font-size="20">&#931;</text>
	<polygon fill="black" stroke-width="1" points="580.297,228.725 583.83,237.473 589.708,229.382"/>
	<path stroke="black" stroke-width="1" fill="none" d="M 209.058,68.333 A 22.5,22.5 0 1 1 227.476,49.349"/>
	<text x="171.5" y="21.5" font-family="Times New Roman" font-size="20">d</text>
	<polygon fill="black" stroke-width="1" points="227.476,49.349 231.031,40.61 221.179,42.324"/>
	<path stroke="black" stroke-width="1" fill="none" d="M 221.537,102.842 A 151.222,151.222 0 0 1 186.856,135.272"/>
	<polygon fill="black" stroke-width="1" points="186.856,135.272 196.284,134.936 190.685,126.65"/>
	<text x="210.5" y="141.5" font-family="Times New Roman" font-size="20">&#931;-d-e</text>
	<path stroke="black" stroke-width="1" fill="none" d="M 264.548,64.841 A 90.825,90.825 0 0 1 313.452,64.841"/>
	<polygon fill="black" stroke-width="1" points="264.548,64.841 273.599,67.503 270.907,57.872"/>
	<text x="282.5" y="52.5" font-family="Times New Roman" font-size="20">d</text>
	<path stroke="black" stroke-width="1" fill="none" d="M 258.494,56.157 A 134.099,134.099 0 0 1 427.506,56.157"/>
	<polygon fill="black" stroke-width="1" points="258.494,56.157 267.856,54.998 261.555,47.234"/>
	<text x="336.5" y="17.5" font-family="Times New Roman" font-size="20">d</text>
	<path stroke="black" stroke-width="1" fill="none" d="M 250.147,104.633 A 132.064,132.064 0 0 1 250.147,188.367"/>
	<polygon fill="black" stroke-width="1" points="250.147,104.633 247.941,113.805 257.425,110.635"/>
	<text x="261.5" y="152.5" font-family="Times New Roman" font-size="20">d</text>
	<polygon stroke="black" stroke-width="1" points="322.556,191.458 255.444,101.542"/>
	<polygon fill="black" stroke-width="1" points="255.444,101.542 256.222,110.944 264.236,104.962"/>
	<text x="294.5" y="138.5" font-family="Times New Roman" font-size="20">d</text>
	<path stroke="black" stroke-width="1" fill="none" d="M 265.739,87.612 A 478.283,478.283 0 0 1 427.918,193.681"/>
	<polygon fill="black" stroke-width="1" points="265.739,87.612 271.35,95.195 275.015,85.891"/>
	<text x="357.5" y="123.5" font-family="Times New Roman" font-size="20">d</text>
	<polygon stroke="black" stroke-width="1" points="423.393,93.921 262.607,199.079"/>
	<polygon fill="black" stroke-width="1" points="262.607,199.079 272.039,198.885 266.565,190.516"/>
	<text x="348.5" y="167.5" font-family="Times New Roman" font-size="20">s</text>
	<path stroke="black" stroke-width="1" fill="none" d="M 468.743,99.593 A 177.594,177.594 0 1 1 153.035,178.52"/>
	<polygon fill="black" stroke-width="1" points="153.035,178.52 146.772,185.575 156.633,187.241"/>
	<text x="365.5" y="404.5" font-family="Times New Roman" font-size="20">&#931;-d-p-s</text>
	<path stroke="black" stroke-width="1" fill="none" d="M 250.725,242.297 A 22.5,22.5 0 1 1 224.275,242.297"/>
	<text x="232.5" y="304.5" font-family="Times New Roman" font-size="20">s</text>
	<polygon fill="black" stroke-width="1" points="224.275,242.297 215.527,245.83 223.618,251.708"/>
	<polygon stroke="black" stroke-width="1" points="214.722,195.976 183.278,169.024"/>
	<polygon fill="black" stroke-width="1" points="183.278,169.024 186.098,178.026 192.606,170.434"/>
	<text x="204.5" y="173.5" font-family="Times New Roman" font-size="20">&#931;-e-d-s</text>
	<path stroke="black" stroke-width="1" fill="none" d="M 265.809,205.823 A 116.426,116.426 0 0 1 312.191,205.823"/>
	<polygon fill="black" stroke-width="1" points="265.809,205.823 274.645,209.13 272.653,199.33"/>
	<text x="284.5" y="194.5" font-family="Times New Roman" font-size="20">s</text>
	<path stroke="black" stroke-width="1" fill="none" d="M 426.196,235.48 A 142.192,142.192 0 0 1 259.804,235.48"/>
	<polygon fill="black" stroke-width="1" points="259.804,235.48 263.366,244.215 269.217,236.106"/>
	<text x="338.5" y="283.5" font-family="Times New Roman" font-size="20">s</text>
	<path stroke="black" stroke-width="1" fill="none" d="M 438.929,243.878 A 147.733,147.733 0 0 1 156.758,179.214"/>
	<polygon fill="black" stroke-width="1" points="156.758,179.214 151.57,187.093 161.567,187.33"/>
	<text x="212.5" y="350.5" font-family="Times New Roman" font-size="20">&#931;-d-s-k</text>
	<path stroke="black" stroke-width="1" fill="none" d="M 332.42,244.271 A 98.452,98.452 0 0 1 148.067,176.675"/>
	<polygon fill="black" stroke-width="1" points="148.067,176.675 141.071,183.004 150.69,185.736"/>
	<text x="140.5" y="317.5" font-family="Times New Roman" font-size="20">&#931;-d-e-s</text>
</svg>
